<mxfile host="app.diagrams.net" modified="2023-08-28T20:06:10.500Z" agent="Mozilla/5.0 (Windows NT 10.0; Win64; x64) AppleWebKit/537.36 (KHTML, like Gecko) Chrome/115.0.0.0 Safari/537.36" etag="kVRfwjlGAty3Vh8-yuRM" version="21.6.9" type="device">
  <diagram name="PÃ¡gina-1" id="kp7T4gzM5nlJn1S1i0E5">
    <mxGraphModel dx="2603" dy="758" grid="1" gridSize="10" guides="1" tooltips="1" connect="1" arrows="1" fold="1" page="1" pageScale="1" pageWidth="1169" pageHeight="827" math="0" shadow="0">
      <root>
        <mxCell id="0" />
        <mxCell id="1" parent="0" />
        <mxCell id="LA_kGTPau4nZWow_Dx0K-2" value="Project: Coffee Ordering Service" style="text;align=center;fontStyle=1;verticalAlign=middle;spacingLeft=3;spacingRight=3;strokeColor=none;rotatable=0;points=[[0,0.5],[1,0.5]];portConstraint=eastwest;html=1;" vertex="1" parent="1">
          <mxGeometry x="760" y="220" width="80" height="26" as="geometry" />
        </mxCell>
        <mxCell id="LA_kGTPau4nZWow_Dx0K-3" value="User&#39;s order class diagram" style="text;strokeColor=none;fillColor=none;html=1;fontSize=24;fontStyle=1;verticalAlign=middle;align=center;" vertex="1" parent="1">
          <mxGeometry x="680" y="190" width="100" height="40" as="geometry" />
        </mxCell>
        <mxCell id="LA_kGTPau4nZWow_Dx0K-5" value="Address" style="swimlane;fontStyle=1;align=center;verticalAlign=top;childLayout=stackLayout;horizontal=1;startSize=26;horizontalStack=0;resizeParent=1;resizeParentMax=0;resizeLast=0;collapsible=1;marginBottom=0;whiteSpace=wrap;html=1;fillColor=#FFFFFF;" vertex="1" parent="1">
          <mxGeometry x="390" y="200" width="160" height="164" as="geometry" />
        </mxCell>
        <mxCell id="LA_kGTPau4nZWow_Dx0K-6" value="+ id&lt;br&gt;+ zip:string&lt;br&gt;+ street:string&lt;br&gt;+ houseNumber:int&lt;br&gt;+ houseLetter:string&lt;br&gt;+ users:User[*]&lt;br&gt;+ city:City" style="text;strokeColor=none;fillColor=#FFFFFF;align=left;verticalAlign=top;spacingLeft=4;spacingRight=4;overflow=hidden;rotatable=0;points=[[0,0.5],[1,0.5]];portConstraint=eastwest;whiteSpace=wrap;html=1;" vertex="1" parent="LA_kGTPau4nZWow_Dx0K-5">
          <mxGeometry y="26" width="160" height="104" as="geometry" />
        </mxCell>
        <mxCell id="LA_kGTPau4nZWow_Dx0K-7" value="" style="line;strokeWidth=1;fillColor=none;align=left;verticalAlign=middle;spacingTop=-1;spacingLeft=3;spacingRight=3;rotatable=0;labelPosition=right;points=[];portConstraint=eastwest;strokeColor=inherit;" vertex="1" parent="LA_kGTPau4nZWow_Dx0K-5">
          <mxGeometry y="130" width="160" height="8" as="geometry" />
        </mxCell>
        <mxCell id="LA_kGTPau4nZWow_Dx0K-8" value="" style="text;strokeColor=none;fillColor=#FFFFFF;align=left;verticalAlign=top;spacingLeft=4;spacingRight=4;overflow=hidden;rotatable=0;points=[[0,0.5],[1,0.5]];portConstraint=eastwest;whiteSpace=wrap;html=1;" vertex="1" parent="LA_kGTPau4nZWow_Dx0K-5">
          <mxGeometry y="138" width="160" height="26" as="geometry" />
        </mxCell>
        <mxCell id="LA_kGTPau4nZWow_Dx0K-10" value="Country" style="swimlane;fontStyle=1;align=center;verticalAlign=top;childLayout=stackLayout;horizontal=1;startSize=26;horizontalStack=0;resizeParent=1;resizeParentMax=0;resizeLast=0;collapsible=1;marginBottom=0;whiteSpace=wrap;html=1;fillColor=#FFFFFF;" vertex="1" parent="1">
          <mxGeometry x="390" y="30" width="160" height="114" as="geometry" />
        </mxCell>
        <mxCell id="LA_kGTPau4nZWow_Dx0K-11" value="+ id&lt;br&gt;+ code:string&lt;br&gt;+ name:string" style="text;strokeColor=none;fillColor=#FFFFFF;align=left;verticalAlign=top;spacingLeft=4;spacingRight=4;overflow=hidden;rotatable=0;points=[[0,0.5],[1,0.5]];portConstraint=eastwest;whiteSpace=wrap;html=1;" vertex="1" parent="LA_kGTPau4nZWow_Dx0K-10">
          <mxGeometry y="26" width="160" height="54" as="geometry" />
        </mxCell>
        <mxCell id="LA_kGTPau4nZWow_Dx0K-12" value="" style="line;strokeWidth=1;fillColor=none;align=left;verticalAlign=middle;spacingTop=-1;spacingLeft=3;spacingRight=3;rotatable=0;labelPosition=right;points=[];portConstraint=eastwest;strokeColor=inherit;" vertex="1" parent="LA_kGTPau4nZWow_Dx0K-10">
          <mxGeometry y="80" width="160" height="8" as="geometry" />
        </mxCell>
        <mxCell id="LA_kGTPau4nZWow_Dx0K-13" value="" style="text;strokeColor=none;fillColor=#FFFFFF;align=left;verticalAlign=top;spacingLeft=4;spacingRight=4;overflow=hidden;rotatable=0;points=[[0,0.5],[1,0.5]];portConstraint=eastwest;whiteSpace=wrap;html=1;" vertex="1" parent="LA_kGTPau4nZWow_Dx0K-10">
          <mxGeometry y="88" width="160" height="26" as="geometry" />
        </mxCell>
        <mxCell id="LA_kGTPau4nZWow_Dx0K-14" value="City" style="swimlane;fontStyle=1;align=center;verticalAlign=top;childLayout=stackLayout;horizontal=1;startSize=26;horizontalStack=0;resizeParent=1;resizeParentMax=0;resizeLast=0;collapsible=1;marginBottom=0;whiteSpace=wrap;html=1;fillColor=#FFFFFF;" vertex="1" parent="1">
          <mxGeometry x="140" y="30" width="160" height="130" as="geometry" />
        </mxCell>
        <mxCell id="LA_kGTPau4nZWow_Dx0K-15" value="+ id&lt;br&gt;+ code:string&lt;br&gt;+ name:string&lt;br&gt;+ country:Country" style="text;strokeColor=none;fillColor=#FFFFFF;align=left;verticalAlign=top;spacingLeft=4;spacingRight=4;overflow=hidden;rotatable=0;points=[[0,0.5],[1,0.5]];portConstraint=eastwest;whiteSpace=wrap;html=1;" vertex="1" parent="LA_kGTPau4nZWow_Dx0K-14">
          <mxGeometry y="26" width="160" height="74" as="geometry" />
        </mxCell>
        <mxCell id="LA_kGTPau4nZWow_Dx0K-16" value="" style="line;strokeWidth=1;fillColor=none;align=left;verticalAlign=middle;spacingTop=-1;spacingLeft=3;spacingRight=3;rotatable=0;labelPosition=right;points=[];portConstraint=eastwest;strokeColor=inherit;" vertex="1" parent="LA_kGTPau4nZWow_Dx0K-14">
          <mxGeometry y="100" width="160" height="8" as="geometry" />
        </mxCell>
        <mxCell id="LA_kGTPau4nZWow_Dx0K-17" value="" style="text;strokeColor=none;fillColor=#FFFFFF;align=left;verticalAlign=top;spacingLeft=4;spacingRight=4;overflow=hidden;rotatable=0;points=[[0,0.5],[1,0.5]];portConstraint=eastwest;whiteSpace=wrap;html=1;" vertex="1" parent="LA_kGTPau4nZWow_Dx0K-14">
          <mxGeometry y="108" width="160" height="22" as="geometry" />
        </mxCell>
        <mxCell id="LA_kGTPau4nZWow_Dx0K-27" value="" style="endArrow=open;html=1;rounded=0;endFill=0;" edge="1" parent="LA_kGTPau4nZWow_Dx0K-14">
          <mxGeometry width="50" height="50" relative="1" as="geometry">
            <mxPoint x="60" y="250" as="sourcePoint" />
            <mxPoint x="60" y="130" as="targetPoint" />
          </mxGeometry>
        </mxCell>
        <mxCell id="LA_kGTPau4nZWow_Dx0K-18" value="" style="endArrow=open;html=1;rounded=0;exitX=0.988;exitY=0.419;exitDx=0;exitDy=0;exitPerimeter=0;endFill=0;" edge="1" parent="1">
          <mxGeometry width="50" height="50" relative="1" as="geometry">
            <mxPoint x="300.0799999999999" y="87.00599999999997" as="sourcePoint" />
            <mxPoint x="392" y="86.5" as="targetPoint" />
          </mxGeometry>
        </mxCell>
        <mxCell id="LA_kGTPau4nZWow_Dx0K-23" value="*" style="text;html=1;strokeColor=none;fillColor=none;align=center;verticalAlign=middle;whiteSpace=wrap;rounded=0;" vertex="1" parent="1">
          <mxGeometry x="300" y="70" width="20" height="20" as="geometry" />
        </mxCell>
        <mxCell id="LA_kGTPau4nZWow_Dx0K-24" value="1" style="text;html=1;strokeColor=none;fillColor=none;align=center;verticalAlign=middle;whiteSpace=wrap;rounded=0;" vertex="1" parent="1">
          <mxGeometry x="368" y="67" width="20" height="20" as="geometry" />
        </mxCell>
        <mxCell id="LA_kGTPau4nZWow_Dx0K-25" value="" style="endArrow=none;html=1;rounded=0;" edge="1" parent="1">
          <mxGeometry width="50" height="50" relative="1" as="geometry">
            <mxPoint x="200" y="280" as="sourcePoint" />
            <mxPoint x="390" y="280" as="targetPoint" />
          </mxGeometry>
        </mxCell>
        <mxCell id="LA_kGTPau4nZWow_Dx0K-28" value="1" style="text;html=1;strokeColor=none;fillColor=none;align=center;verticalAlign=middle;whiteSpace=wrap;rounded=0;" vertex="1" parent="1">
          <mxGeometry x="200" y="160" width="20" height="20" as="geometry" />
        </mxCell>
        <mxCell id="LA_kGTPau4nZWow_Dx0K-29" value="*" style="text;html=1;strokeColor=none;fillColor=none;align=center;verticalAlign=middle;whiteSpace=wrap;rounded=0;" vertex="1" parent="1">
          <mxGeometry x="370" y="260" width="20" height="20" as="geometry" />
        </mxCell>
        <mxCell id="LA_kGTPau4nZWow_Dx0K-35" style="edgeStyle=orthogonalEdgeStyle;rounded=0;orthogonalLoop=1;jettySize=auto;html=1;entryX=0.5;entryY=1;entryDx=0;entryDy=0;endArrow=open;endFill=0;" edge="1" parent="1" source="LA_kGTPau4nZWow_Dx0K-31" target="LA_kGTPau4nZWow_Dx0K-5">
          <mxGeometry relative="1" as="geometry" />
        </mxCell>
        <mxCell id="LA_kGTPau4nZWow_Dx0K-31" value="User" style="swimlane;fontStyle=1;align=center;verticalAlign=top;childLayout=stackLayout;horizontal=1;startSize=26;horizontalStack=0;resizeParent=1;resizeParentMax=0;resizeLast=0;collapsible=1;marginBottom=0;whiteSpace=wrap;html=1;fillColor=#FFFFFF;" vertex="1" parent="1">
          <mxGeometry x="390" y="420" width="160" height="184" as="geometry" />
        </mxCell>
        <mxCell id="LA_kGTPau4nZWow_Dx0K-32" value="+ id&lt;br&gt;+ firstName:String&lt;br&gt;+ middleName:string&lt;br&gt;+ lastName:string&lt;br&gt;+ address:Address[*]&lt;br&gt;+ cart:Cart&lt;br&gt;+ orders:Order[*]&lt;br&gt;+ payments:Transactions[*]" style="text;strokeColor=none;fillColor=#FFFFFF;align=left;verticalAlign=top;spacingLeft=4;spacingRight=4;overflow=hidden;rotatable=0;points=[[0,0.5],[1,0.5]];portConstraint=eastwest;whiteSpace=wrap;html=1;" vertex="1" parent="LA_kGTPau4nZWow_Dx0K-31">
          <mxGeometry y="26" width="160" height="124" as="geometry" />
        </mxCell>
        <mxCell id="LA_kGTPau4nZWow_Dx0K-33" value="" style="line;strokeWidth=1;fillColor=none;align=left;verticalAlign=middle;spacingTop=-1;spacingLeft=3;spacingRight=3;rotatable=0;labelPosition=right;points=[];portConstraint=eastwest;strokeColor=inherit;" vertex="1" parent="LA_kGTPau4nZWow_Dx0K-31">
          <mxGeometry y="150" width="160" height="8" as="geometry" />
        </mxCell>
        <mxCell id="LA_kGTPau4nZWow_Dx0K-34" value="" style="text;strokeColor=none;fillColor=#FFFFFF;align=left;verticalAlign=top;spacingLeft=4;spacingRight=4;overflow=hidden;rotatable=0;points=[[0,0.5],[1,0.5]];portConstraint=eastwest;whiteSpace=wrap;html=1;" vertex="1" parent="LA_kGTPau4nZWow_Dx0K-31">
          <mxGeometry y="158" width="160" height="26" as="geometry" />
        </mxCell>
        <mxCell id="LA_kGTPau4nZWow_Dx0K-36" value="*" style="text;html=1;strokeColor=none;fillColor=none;align=center;verticalAlign=middle;whiteSpace=wrap;rounded=0;" vertex="1" parent="1">
          <mxGeometry x="449" y="370" width="20" height="20" as="geometry" />
        </mxCell>
        <mxCell id="LA_kGTPau4nZWow_Dx0K-37" value="*" style="text;html=1;strokeColor=none;fillColor=none;align=center;verticalAlign=middle;whiteSpace=wrap;rounded=0;" vertex="1" parent="1">
          <mxGeometry x="449" y="400" width="20" height="20" as="geometry" />
        </mxCell>
        <mxCell id="LA_kGTPau4nZWow_Dx0K-38" value="Cart" style="swimlane;fontStyle=1;align=center;verticalAlign=top;childLayout=stackLayout;horizontal=1;startSize=26;horizontalStack=0;resizeParent=1;resizeParentMax=0;resizeLast=0;collapsible=1;marginBottom=0;whiteSpace=wrap;html=1;fillColor=#FFFFFF;" vertex="1" parent="1">
          <mxGeometry x="392" y="650" width="160" height="180" as="geometry" />
        </mxCell>
        <mxCell id="LA_kGTPau4nZWow_Dx0K-39" value="+ id&lt;br&gt;+ total:double&lt;br&gt;+ items:CartItem[*]&lt;br&gt;" style="text;strokeColor=none;fillColor=#FFFFFF;align=left;verticalAlign=top;spacingLeft=4;spacingRight=4;overflow=hidden;rotatable=0;points=[[0,0.5],[1,0.5]];portConstraint=eastwest;whiteSpace=wrap;html=1;" vertex="1" parent="LA_kGTPau4nZWow_Dx0K-38">
          <mxGeometry y="26" width="160" height="64" as="geometry" />
        </mxCell>
        <mxCell id="LA_kGTPau4nZWow_Dx0K-40" value="" style="line;strokeWidth=1;fillColor=none;align=left;verticalAlign=middle;spacingTop=-1;spacingLeft=3;spacingRight=3;rotatable=0;labelPosition=right;points=[];portConstraint=eastwest;strokeColor=inherit;" vertex="1" parent="LA_kGTPau4nZWow_Dx0K-38">
          <mxGeometry y="90" width="160" height="8" as="geometry" />
        </mxCell>
        <mxCell id="LA_kGTPau4nZWow_Dx0K-41" value="+ addItems()&lt;br&gt;+ deletedItem()&lt;br&gt;+ updateItemNumbers()&lt;br&gt;# clone()&lt;br&gt;- recountTotal()" style="text;strokeColor=none;fillColor=#FFFFFF;align=left;verticalAlign=top;spacingLeft=4;spacingRight=4;overflow=hidden;rotatable=0;points=[[0,0.5],[1,0.5]];portConstraint=eastwest;whiteSpace=wrap;html=1;" vertex="1" parent="LA_kGTPau4nZWow_Dx0K-38">
          <mxGeometry y="98" width="160" height="82" as="geometry" />
        </mxCell>
        <mxCell id="LA_kGTPau4nZWow_Dx0K-42" value="" style="endArrow=open;html=1;rounded=0;endFill=0;" edge="1" parent="1">
          <mxGeometry width="50" height="50" relative="1" as="geometry">
            <mxPoint x="469" y="604" as="sourcePoint" />
            <mxPoint x="470" y="650" as="targetPoint" />
          </mxGeometry>
        </mxCell>
        <mxCell id="LA_kGTPau4nZWow_Dx0K-43" value="1" style="text;html=1;strokeColor=none;fillColor=none;align=center;verticalAlign=middle;whiteSpace=wrap;rounded=0;" vertex="1" parent="1">
          <mxGeometry x="448" y="604" width="20" height="20" as="geometry" />
        </mxCell>
        <mxCell id="LA_kGTPau4nZWow_Dx0K-44" value="1" style="text;html=1;strokeColor=none;fillColor=none;align=center;verticalAlign=middle;whiteSpace=wrap;rounded=0;" vertex="1" parent="1">
          <mxGeometry x="448" y="630" width="20" height="20" as="geometry" />
        </mxCell>
        <mxCell id="LA_kGTPau4nZWow_Dx0K-46" value="OrderStatus" style="swimlane;fontStyle=1;align=center;verticalAlign=top;childLayout=stackLayout;horizontal=1;startSize=26;horizontalStack=0;resizeParent=1;resizeParentMax=0;resizeLast=0;collapsible=1;marginBottom=0;whiteSpace=wrap;html=1;fillColor=#FFFFFF;" vertex="1" parent="1">
          <mxGeometry x="680" y="520" width="160" height="114" as="geometry" />
        </mxCell>
        <mxCell id="LA_kGTPau4nZWow_Dx0K-47" value="+ id&lt;br&gt;+ name:string&lt;br&gt;+ orders:Order[*]" style="text;strokeColor=none;fillColor=#FFFFFF;align=left;verticalAlign=top;spacingLeft=4;spacingRight=4;overflow=hidden;rotatable=0;points=[[0,0.5],[1,0.5]];portConstraint=eastwest;whiteSpace=wrap;html=1;" vertex="1" parent="LA_kGTPau4nZWow_Dx0K-46">
          <mxGeometry y="26" width="160" height="54" as="geometry" />
        </mxCell>
        <mxCell id="LA_kGTPau4nZWow_Dx0K-48" value="" style="line;strokeWidth=1;fillColor=none;align=left;verticalAlign=middle;spacingTop=-1;spacingLeft=3;spacingRight=3;rotatable=0;labelPosition=right;points=[];portConstraint=eastwest;strokeColor=inherit;" vertex="1" parent="LA_kGTPau4nZWow_Dx0K-46">
          <mxGeometry y="80" width="160" height="8" as="geometry" />
        </mxCell>
        <mxCell id="LA_kGTPau4nZWow_Dx0K-49" value="" style="text;strokeColor=none;fillColor=#FFFFFF;align=left;verticalAlign=top;spacingLeft=4;spacingRight=4;overflow=hidden;rotatable=0;points=[[0,0.5],[1,0.5]];portConstraint=eastwest;whiteSpace=wrap;html=1;" vertex="1" parent="LA_kGTPau4nZWow_Dx0K-46">
          <mxGeometry y="88" width="160" height="26" as="geometry" />
        </mxCell>
        <mxCell id="LA_kGTPau4nZWow_Dx0K-50" value="Order" style="swimlane;fontStyle=1;align=center;verticalAlign=top;childLayout=stackLayout;horizontal=1;startSize=26;horizontalStack=0;resizeParent=1;resizeParentMax=0;resizeLast=0;collapsible=1;marginBottom=0;whiteSpace=wrap;html=1;fillColor=#FFFFFF;" vertex="1" parent="1">
          <mxGeometry x="680" y="683" width="160" height="160" as="geometry" />
        </mxCell>
        <mxCell id="LA_kGTPau4nZWow_Dx0K-51" value="+ id&lt;br&gt;+ total:souble&lt;br&gt;+ status:OrderStatus&lt;br&gt;+ items:OrderItem[*]" style="text;strokeColor=none;fillColor=#FFFFFF;align=left;verticalAlign=top;spacingLeft=4;spacingRight=4;overflow=hidden;rotatable=0;points=[[0,0.5],[1,0.5]];portConstraint=eastwest;whiteSpace=wrap;html=1;" vertex="1" parent="LA_kGTPau4nZWow_Dx0K-50">
          <mxGeometry y="26" width="160" height="74" as="geometry" />
        </mxCell>
        <mxCell id="LA_kGTPau4nZWow_Dx0K-52" value="" style="line;strokeWidth=1;fillColor=none;align=left;verticalAlign=middle;spacingTop=-1;spacingLeft=3;spacingRight=3;rotatable=0;labelPosition=right;points=[];portConstraint=eastwest;strokeColor=inherit;" vertex="1" parent="LA_kGTPau4nZWow_Dx0K-50">
          <mxGeometry y="100" width="160" height="8" as="geometry" />
        </mxCell>
        <mxCell id="LA_kGTPau4nZWow_Dx0K-53" value="+ changeStatus()&lt;br&gt;+ create()&lt;br&gt;- addItem()&lt;br&gt;" style="text;strokeColor=none;fillColor=#FFFFFF;align=left;verticalAlign=top;spacingLeft=4;spacingRight=4;overflow=hidden;rotatable=0;points=[[0,0.5],[1,0.5]];portConstraint=eastwest;whiteSpace=wrap;html=1;" vertex="1" parent="LA_kGTPau4nZWow_Dx0K-50">
          <mxGeometry y="108" width="160" height="52" as="geometry" />
        </mxCell>
        <mxCell id="LA_kGTPau4nZWow_Dx0K-54" value="" style="endArrow=open;html=1;rounded=0;entryX=0.494;entryY=1;entryDx=0;entryDy=0;entryPerimeter=0;endFill=0;" edge="1" parent="1" target="LA_kGTPau4nZWow_Dx0K-49">
          <mxGeometry width="50" height="50" relative="1" as="geometry">
            <mxPoint x="759.5" y="683" as="sourcePoint" />
            <mxPoint x="759.5" y="643" as="targetPoint" />
          </mxGeometry>
        </mxCell>
        <mxCell id="LA_kGTPau4nZWow_Dx0K-55" value="1" style="text;html=1;strokeColor=none;fillColor=none;align=center;verticalAlign=middle;whiteSpace=wrap;rounded=0;" vertex="1" parent="1">
          <mxGeometry x="740" y="634" width="20" height="20" as="geometry" />
        </mxCell>
        <mxCell id="LA_kGTPau4nZWow_Dx0K-56" value="*" style="text;html=1;strokeColor=none;fillColor=none;align=center;verticalAlign=middle;whiteSpace=wrap;rounded=0;" vertex="1" parent="1">
          <mxGeometry x="740" y="663" width="20" height="20" as="geometry" />
        </mxCell>
        <mxCell id="LA_kGTPau4nZWow_Dx0K-57" value="" style="endArrow=none;html=1;rounded=0;" edge="1" parent="1">
          <mxGeometry width="50" height="50" relative="1" as="geometry">
            <mxPoint x="550" y="500" as="sourcePoint" />
            <mxPoint x="590" y="500" as="targetPoint" />
          </mxGeometry>
        </mxCell>
        <mxCell id="LA_kGTPau4nZWow_Dx0K-59" value="" style="endArrow=none;html=1;rounded=0;" edge="1" parent="1">
          <mxGeometry width="50" height="50" relative="1" as="geometry">
            <mxPoint x="590" y="500" as="sourcePoint" />
            <mxPoint x="590" y="760" as="targetPoint" />
          </mxGeometry>
        </mxCell>
        <mxCell id="LA_kGTPau4nZWow_Dx0K-60" value="" style="endArrow=open;html=1;rounded=0;entryX=-0.025;entryY=0.703;entryDx=0;entryDy=0;entryPerimeter=0;endFill=0;" edge="1" parent="1" target="LA_kGTPau4nZWow_Dx0K-51">
          <mxGeometry width="50" height="50" relative="1" as="geometry">
            <mxPoint x="590" y="759.5" as="sourcePoint" />
            <mxPoint x="630" y="759.5" as="targetPoint" />
            <Array as="points">
              <mxPoint x="630" y="761" />
            </Array>
          </mxGeometry>
        </mxCell>
        <mxCell id="LA_kGTPau4nZWow_Dx0K-61" value="1" style="text;html=1;strokeColor=none;fillColor=none;align=center;verticalAlign=middle;whiteSpace=wrap;rounded=0;" vertex="1" parent="1">
          <mxGeometry x="550" y="480" width="20" height="20" as="geometry" />
        </mxCell>
        <mxCell id="LA_kGTPau4nZWow_Dx0K-62" value="*" style="text;html=1;strokeColor=none;fillColor=none;align=center;verticalAlign=middle;whiteSpace=wrap;rounded=0;" vertex="1" parent="1">
          <mxGeometry x="650" y="740" width="20" height="20" as="geometry" />
        </mxCell>
        <mxCell id="LA_kGTPau4nZWow_Dx0K-63" value="OrderItem" style="swimlane;fontStyle=1;align=center;verticalAlign=top;childLayout=stackLayout;horizontal=1;startSize=26;horizontalStack=0;resizeParent=1;resizeParentMax=0;resizeLast=0;collapsible=1;marginBottom=0;whiteSpace=wrap;html=1;fillColor=#FFFFFF;" vertex="1" parent="1">
          <mxGeometry x="909" y="704" width="160" height="134" as="geometry" />
        </mxCell>
        <mxCell id="LA_kGTPau4nZWow_Dx0K-64" value="+ id&lt;br&gt;+ number:integer&lt;br&gt;*inventory:Inventory&lt;br&gt;+ order:Order" style="text;strokeColor=none;fillColor=#FFFFFF;align=left;verticalAlign=top;spacingLeft=4;spacingRight=4;overflow=hidden;rotatable=0;points=[[0,0.5],[1,0.5]];portConstraint=eastwest;whiteSpace=wrap;html=1;" vertex="1" parent="LA_kGTPau4nZWow_Dx0K-63">
          <mxGeometry y="26" width="160" height="74" as="geometry" />
        </mxCell>
        <mxCell id="LA_kGTPau4nZWow_Dx0K-65" value="" style="line;strokeWidth=1;fillColor=none;align=left;verticalAlign=middle;spacingTop=-1;spacingLeft=3;spacingRight=3;rotatable=0;labelPosition=right;points=[];portConstraint=eastwest;strokeColor=inherit;" vertex="1" parent="LA_kGTPau4nZWow_Dx0K-63">
          <mxGeometry y="100" width="160" height="8" as="geometry" />
        </mxCell>
        <mxCell id="LA_kGTPau4nZWow_Dx0K-66" value="" style="text;strokeColor=none;fillColor=#FFFFFF;align=left;verticalAlign=top;spacingLeft=4;spacingRight=4;overflow=hidden;rotatable=0;points=[[0,0.5],[1,0.5]];portConstraint=eastwest;whiteSpace=wrap;html=1;" vertex="1" parent="LA_kGTPau4nZWow_Dx0K-63">
          <mxGeometry y="108" width="160" height="26" as="geometry" />
        </mxCell>
        <mxCell id="LA_kGTPau4nZWow_Dx0K-67" value="" style="endArrow=open;html=1;rounded=0;entryX=0.006;entryY=0.439;entryDx=0;entryDy=0;entryPerimeter=0;endFill=0;" edge="1" parent="1" target="LA_kGTPau4nZWow_Dx0K-64">
          <mxGeometry width="50" height="50" relative="1" as="geometry">
            <mxPoint x="840" y="762.5" as="sourcePoint" />
            <mxPoint x="900" y="762.5" as="targetPoint" />
          </mxGeometry>
        </mxCell>
        <mxCell id="LA_kGTPau4nZWow_Dx0K-68" value="1" style="text;html=1;strokeColor=none;fillColor=none;align=center;verticalAlign=middle;whiteSpace=wrap;rounded=0;" vertex="1" parent="1">
          <mxGeometry x="840" y="740" width="20" height="20" as="geometry" />
        </mxCell>
        <mxCell id="LA_kGTPau4nZWow_Dx0K-69" value="*" style="text;html=1;strokeColor=none;fillColor=none;align=center;verticalAlign=middle;whiteSpace=wrap;rounded=0;" vertex="1" parent="1">
          <mxGeometry x="889" y="742" width="20" height="20" as="geometry" />
        </mxCell>
        <mxCell id="LA_kGTPau4nZWow_Dx0K-70" value="Paypal" style="swimlane;fontStyle=1;align=center;verticalAlign=top;childLayout=stackLayout;horizontal=1;startSize=26;horizontalStack=0;resizeParent=1;resizeParentMax=0;resizeLast=0;collapsible=1;marginBottom=0;whiteSpace=wrap;html=1;fillColor=#FFFFFF;" vertex="1" parent="1">
          <mxGeometry x="170" y="440" width="160" height="114" as="geometry" />
        </mxCell>
        <mxCell id="LA_kGTPau4nZWow_Dx0K-71" value="+ id&lt;br&gt;+ name:string&lt;br&gt;+ logo:string" style="text;strokeColor=none;fillColor=#FFFFFF;align=left;verticalAlign=top;spacingLeft=4;spacingRight=4;overflow=hidden;rotatable=0;points=[[0,0.5],[1,0.5]];portConstraint=eastwest;whiteSpace=wrap;html=1;" vertex="1" parent="LA_kGTPau4nZWow_Dx0K-70">
          <mxGeometry y="26" width="160" height="54" as="geometry" />
        </mxCell>
        <mxCell id="LA_kGTPau4nZWow_Dx0K-72" value="" style="line;strokeWidth=1;fillColor=none;align=left;verticalAlign=middle;spacingTop=-1;spacingLeft=3;spacingRight=3;rotatable=0;labelPosition=right;points=[];portConstraint=eastwest;strokeColor=inherit;" vertex="1" parent="LA_kGTPau4nZWow_Dx0K-70">
          <mxGeometry y="80" width="160" height="8" as="geometry" />
        </mxCell>
        <mxCell id="LA_kGTPau4nZWow_Dx0K-73" value="" style="text;strokeColor=none;fillColor=#FFFFFF;align=left;verticalAlign=top;spacingLeft=4;spacingRight=4;overflow=hidden;rotatable=0;points=[[0,0.5],[1,0.5]];portConstraint=eastwest;whiteSpace=wrap;html=1;" vertex="1" parent="LA_kGTPau4nZWow_Dx0K-70">
          <mxGeometry y="88" width="160" height="26" as="geometry" />
        </mxCell>
        <mxCell id="LA_kGTPau4nZWow_Dx0K-74" value="CreditCard" style="swimlane;fontStyle=1;align=center;verticalAlign=top;childLayout=stackLayout;horizontal=1;startSize=26;horizontalStack=0;resizeParent=1;resizeParentMax=0;resizeLast=0;collapsible=1;marginBottom=0;whiteSpace=wrap;html=1;fillColor=#FFFFFF;" vertex="1" parent="1">
          <mxGeometry x="-30" y="440" width="160" height="114" as="geometry" />
        </mxCell>
        <mxCell id="LA_kGTPau4nZWow_Dx0K-75" value="+ id&lt;br&gt;+ name:string&lt;br&gt;+ logo:string" style="text;strokeColor=none;fillColor=#FFFFFF;align=left;verticalAlign=top;spacingLeft=4;spacingRight=4;overflow=hidden;rotatable=0;points=[[0,0.5],[1,0.5]];portConstraint=eastwest;whiteSpace=wrap;html=1;" vertex="1" parent="LA_kGTPau4nZWow_Dx0K-74">
          <mxGeometry y="26" width="160" height="54" as="geometry" />
        </mxCell>
        <mxCell id="LA_kGTPau4nZWow_Dx0K-76" value="" style="line;strokeWidth=1;fillColor=none;align=left;verticalAlign=middle;spacingTop=-1;spacingLeft=3;spacingRight=3;rotatable=0;labelPosition=right;points=[];portConstraint=eastwest;strokeColor=inherit;" vertex="1" parent="LA_kGTPau4nZWow_Dx0K-74">
          <mxGeometry y="80" width="160" height="8" as="geometry" />
        </mxCell>
        <mxCell id="LA_kGTPau4nZWow_Dx0K-77" value="" style="text;strokeColor=none;fillColor=#FFFFFF;align=left;verticalAlign=top;spacingLeft=4;spacingRight=4;overflow=hidden;rotatable=0;points=[[0,0.5],[1,0.5]];portConstraint=eastwest;whiteSpace=wrap;html=1;" vertex="1" parent="LA_kGTPau4nZWow_Dx0K-74">
          <mxGeometry y="88" width="160" height="26" as="geometry" />
        </mxCell>
        <mxCell id="LA_kGTPau4nZWow_Dx0K-78" value="" style="endArrow=open;html=1;rounded=0;dashed=1;dashPattern=8 8;endFill=0;" edge="1" parent="1">
          <mxGeometry width="50" height="50" relative="1" as="geometry">
            <mxPoint x="249.5" y="554" as="sourcePoint" />
            <mxPoint x="250" y="650" as="targetPoint" />
          </mxGeometry>
        </mxCell>
        <mxCell id="LA_kGTPau4nZWow_Dx0K-79" value="&lt;font style=&quot;font-size: 12px;&quot;&gt;Implements&lt;/font&gt;" style="edgeLabel;html=1;align=center;verticalAlign=middle;resizable=0;points=[];" vertex="1" connectable="0" parent="LA_kGTPau4nZWow_Dx0K-78">
          <mxGeometry x="0.0208" y="-1" relative="1" as="geometry">
            <mxPoint as="offset" />
          </mxGeometry>
        </mxCell>
        <mxCell id="LA_kGTPau4nZWow_Dx0K-80" value="&amp;lt;&amp;lt;Payment&amp;gt;&amp;gt;&lt;br&gt;interface" style="swimlane;fontStyle=1;align=center;verticalAlign=top;childLayout=stackLayout;horizontal=1;startSize=40;horizontalStack=0;resizeParent=1;resizeParentMax=0;resizeLast=0;collapsible=1;marginBottom=0;whiteSpace=wrap;html=1;fillColor=#FFFFFF;" vertex="1" parent="1">
          <mxGeometry x="170" y="650" width="160" height="180" as="geometry" />
        </mxCell>
        <mxCell id="LA_kGTPau4nZWow_Dx0K-81" value="+ id&lt;br&gt;+ type:PaymentType&lt;br&gt;+ total:double&lt;br&gt;+ order:Order&lt;br&gt;+ status:PaymentStatus" style="text;strokeColor=none;fillColor=#FFFFFF;align=left;verticalAlign=top;spacingLeft=4;spacingRight=4;overflow=hidden;rotatable=0;points=[[0,0.5],[1,0.5]];portConstraint=eastwest;whiteSpace=wrap;html=1;" vertex="1" parent="LA_kGTPau4nZWow_Dx0K-80">
          <mxGeometry y="40" width="160" height="90" as="geometry" />
        </mxCell>
        <mxCell id="LA_kGTPau4nZWow_Dx0K-82" value="" style="line;strokeWidth=1;fillColor=none;align=left;verticalAlign=middle;spacingTop=-1;spacingLeft=3;spacingRight=3;rotatable=0;labelPosition=right;points=[];portConstraint=eastwest;strokeColor=inherit;" vertex="1" parent="LA_kGTPau4nZWow_Dx0K-80">
          <mxGeometry y="130" width="160" height="8" as="geometry" />
        </mxCell>
        <mxCell id="LA_kGTPau4nZWow_Dx0K-83" value="- changeStatus()&lt;br&gt;+ change()" style="text;strokeColor=none;fillColor=#FFFFFF;align=left;verticalAlign=top;spacingLeft=4;spacingRight=4;overflow=hidden;rotatable=0;points=[[0,0.5],[1,0.5]];portConstraint=eastwest;whiteSpace=wrap;html=1;" vertex="1" parent="LA_kGTPau4nZWow_Dx0K-80">
          <mxGeometry y="138" width="160" height="42" as="geometry" />
        </mxCell>
        <mxCell id="LA_kGTPau4nZWow_Dx0K-84" value="PaymentStatus" style="swimlane;fontStyle=1;align=center;verticalAlign=top;childLayout=stackLayout;horizontal=1;startSize=30;horizontalStack=0;resizeParent=1;resizeParentMax=0;resizeLast=0;collapsible=1;marginBottom=0;whiteSpace=wrap;html=1;fillColor=#FFFFFF;" vertex="1" parent="1">
          <mxGeometry x="-40" y="668" width="160" height="140" as="geometry" />
        </mxCell>
        <mxCell id="LA_kGTPau4nZWow_Dx0K-85" value="+ id&lt;br&gt;+ name:string&lt;br&gt;+ payments:Payment[*]" style="text;strokeColor=none;fillColor=#FFFFFF;align=left;verticalAlign=top;spacingLeft=4;spacingRight=4;overflow=hidden;rotatable=0;points=[[0,0.5],[1,0.5]];portConstraint=eastwest;whiteSpace=wrap;html=1;" vertex="1" parent="LA_kGTPau4nZWow_Dx0K-84">
          <mxGeometry y="30" width="160" height="60" as="geometry" />
        </mxCell>
        <mxCell id="LA_kGTPau4nZWow_Dx0K-86" value="" style="line;strokeWidth=1;fillColor=none;align=left;verticalAlign=middle;spacingTop=-1;spacingLeft=3;spacingRight=3;rotatable=0;labelPosition=right;points=[];portConstraint=eastwest;strokeColor=inherit;" vertex="1" parent="LA_kGTPau4nZWow_Dx0K-84">
          <mxGeometry y="90" width="160" height="8" as="geometry" />
        </mxCell>
        <mxCell id="LA_kGTPau4nZWow_Dx0K-87" value="" style="text;strokeColor=none;fillColor=#FFFFFF;align=left;verticalAlign=top;spacingLeft=4;spacingRight=4;overflow=hidden;rotatable=0;points=[[0,0.5],[1,0.5]];portConstraint=eastwest;whiteSpace=wrap;html=1;" vertex="1" parent="LA_kGTPau4nZWow_Dx0K-84">
          <mxGeometry y="98" width="160" height="42" as="geometry" />
        </mxCell>
        <mxCell id="LA_kGTPau4nZWow_Dx0K-90" value="" style="endArrow=none;html=1;rounded=0;entryX=0.425;entryY=1;entryDx=0;entryDy=0;entryPerimeter=0;dashed=1;dashPattern=8 8;" edge="1" parent="1">
          <mxGeometry width="50" height="50" relative="1" as="geometry">
            <mxPoint x="32" y="590" as="sourcePoint" />
            <mxPoint x="32" y="554" as="targetPoint" />
          </mxGeometry>
        </mxCell>
        <mxCell id="LA_kGTPau4nZWow_Dx0K-92" value="" style="endArrow=none;html=1;rounded=0;dashed=1;dashPattern=8 8;" edge="1" parent="1">
          <mxGeometry width="50" height="50" relative="1" as="geometry">
            <mxPoint x="200" y="590" as="sourcePoint" />
            <mxPoint x="30" y="590" as="targetPoint" />
          </mxGeometry>
        </mxCell>
        <mxCell id="LA_kGTPau4nZWow_Dx0K-96" value="&lt;font style=&quot;font-size: 12px;&quot;&gt;Implements&lt;/font&gt;" style="edgeLabel;html=1;align=center;verticalAlign=middle;resizable=0;points=[];" vertex="1" connectable="0" parent="LA_kGTPau4nZWow_Dx0K-92">
          <mxGeometry x="0.0361" relative="1" as="geometry">
            <mxPoint as="offset" />
          </mxGeometry>
        </mxCell>
        <mxCell id="LA_kGTPau4nZWow_Dx0K-94" value="" style="endArrow=classic;html=1;rounded=0;entryX=0.188;entryY=-0.011;entryDx=0;entryDy=0;entryPerimeter=0;dashed=1;dashPattern=8 8;" edge="1" parent="1" target="LA_kGTPau4nZWow_Dx0K-80">
          <mxGeometry width="50" height="50" relative="1" as="geometry">
            <mxPoint x="200" y="589" as="sourcePoint" />
            <mxPoint x="200" y="639" as="targetPoint" />
          </mxGeometry>
        </mxCell>
        <mxCell id="LA_kGTPau4nZWow_Dx0K-98" value="" style="endArrow=none;html=1;rounded=0;" edge="1" parent="1">
          <mxGeometry width="50" height="50" relative="1" as="geometry">
            <mxPoint x="360" y="511.5" as="sourcePoint" />
            <mxPoint x="390" y="511.5" as="targetPoint" />
          </mxGeometry>
        </mxCell>
        <mxCell id="LA_kGTPau4nZWow_Dx0K-99" value="" style="endArrow=none;html=1;rounded=0;" edge="1" parent="1">
          <mxGeometry width="50" height="50" relative="1" as="geometry">
            <mxPoint x="360" y="740" as="sourcePoint" />
            <mxPoint x="360.04" y="511" as="targetPoint" />
          </mxGeometry>
        </mxCell>
        <mxCell id="LA_kGTPau4nZWow_Dx0K-100" value="" style="endArrow=open;html=1;rounded=0;entryX=1;entryY=0.5;entryDx=0;entryDy=0;endFill=0;" edge="1" parent="1" target="LA_kGTPau4nZWow_Dx0K-80">
          <mxGeometry width="50" height="50" relative="1" as="geometry">
            <mxPoint x="360" y="740" as="sourcePoint" />
            <mxPoint x="350" y="740" as="targetPoint" />
          </mxGeometry>
        </mxCell>
        <mxCell id="LA_kGTPau4nZWow_Dx0K-101" value="1" style="text;html=1;strokeColor=none;fillColor=none;align=center;verticalAlign=middle;whiteSpace=wrap;rounded=0;" vertex="1" parent="1">
          <mxGeometry x="368" y="490" width="20" height="20" as="geometry" />
        </mxCell>
        <mxCell id="LA_kGTPau4nZWow_Dx0K-102" value="*" style="text;html=1;strokeColor=none;fillColor=none;align=center;verticalAlign=middle;whiteSpace=wrap;rounded=0;" vertex="1" parent="1">
          <mxGeometry x="330" y="720" width="20" height="20" as="geometry" />
        </mxCell>
        <mxCell id="LA_kGTPau4nZWow_Dx0K-103" value="" style="endArrow=open;html=1;rounded=0;entryX=1;entryY=0.5;entryDx=0;entryDy=0;endFill=0;exitX=-0.019;exitY=0.344;exitDx=0;exitDy=0;exitPerimeter=0;" edge="1" parent="1">
          <mxGeometry width="50" height="50" relative="1" as="geometry">
            <mxPoint x="166.96000000000004" y="741.96" as="sourcePoint" />
            <mxPoint x="120" y="741" as="targetPoint" />
          </mxGeometry>
        </mxCell>
        <mxCell id="LA_kGTPau4nZWow_Dx0K-104" value="*" style="text;html=1;strokeColor=none;fillColor=none;align=center;verticalAlign=middle;whiteSpace=wrap;rounded=0;" vertex="1" parent="1">
          <mxGeometry x="150" y="722" width="20" height="20" as="geometry" />
        </mxCell>
        <mxCell id="LA_kGTPau4nZWow_Dx0K-105" value="1" style="text;html=1;strokeColor=none;fillColor=none;align=center;verticalAlign=middle;whiteSpace=wrap;rounded=0;" vertex="1" parent="1">
          <mxGeometry x="120" y="720" width="20" height="20" as="geometry" />
        </mxCell>
        <mxCell id="LA_kGTPau4nZWow_Dx0K-112" value="" style="endArrow=none;html=1;rounded=0;" edge="1" parent="1">
          <mxGeometry width="50" height="50" relative="1" as="geometry">
            <mxPoint x="1000" y="880" as="sourcePoint" />
            <mxPoint x="1000" y="838" as="targetPoint" />
          </mxGeometry>
        </mxCell>
        <mxCell id="LA_kGTPau4nZWow_Dx0K-113" value="" style="endArrow=none;html=1;rounded=0;" edge="1" parent="1">
          <mxGeometry width="50" height="50" relative="1" as="geometry">
            <mxPoint x="260" y="880" as="sourcePoint" />
            <mxPoint x="1000" y="880" as="targetPoint" />
          </mxGeometry>
        </mxCell>
        <mxCell id="LA_kGTPau4nZWow_Dx0K-114" value="" style="endArrow=open;html=1;rounded=0;entryX=0.556;entryY=1.071;entryDx=0;entryDy=0;entryPerimeter=0;endFill=0;" edge="1" parent="1" target="LA_kGTPau4nZWow_Dx0K-83">
          <mxGeometry width="50" height="50" relative="1" as="geometry">
            <mxPoint x="259" y="880" as="sourcePoint" />
            <mxPoint x="260" y="838" as="targetPoint" />
          </mxGeometry>
        </mxCell>
        <mxCell id="LA_kGTPau4nZWow_Dx0K-115" value="*" style="text;html=1;strokeColor=none;fillColor=none;align=center;verticalAlign=middle;whiteSpace=wrap;rounded=0;" vertex="1" parent="1">
          <mxGeometry x="979" y="838" width="20" height="20" as="geometry" />
        </mxCell>
        <mxCell id="LA_kGTPau4nZWow_Dx0K-118" value="*" style="text;html=1;strokeColor=none;fillColor=none;align=center;verticalAlign=middle;whiteSpace=wrap;rounded=0;" vertex="1" parent="1">
          <mxGeometry x="240" y="830" width="20" height="20" as="geometry" />
        </mxCell>
        <mxCell id="LA_kGTPau4nZWow_Dx0K-119" value="CartItem" style="swimlane;fontStyle=1;align=center;verticalAlign=top;childLayout=stackLayout;horizontal=1;startSize=26;horizontalStack=0;resizeParent=1;resizeParentMax=0;resizeLast=0;collapsible=1;marginBottom=0;whiteSpace=wrap;html=1;fillColor=#FFFFFF;" vertex="1" parent="1">
          <mxGeometry x="402" y="910" width="160" height="140" as="geometry" />
        </mxCell>
        <mxCell id="LA_kGTPau4nZWow_Dx0K-120" value="+ id&lt;br&gt;+ number:integer&lt;br&gt;+ inventory:Inventory" style="text;strokeColor=none;fillColor=#FFFFFF;align=left;verticalAlign=top;spacingLeft=4;spacingRight=4;overflow=hidden;rotatable=0;points=[[0,0.5],[1,0.5]];portConstraint=eastwest;whiteSpace=wrap;html=1;" vertex="1" parent="LA_kGTPau4nZWow_Dx0K-119">
          <mxGeometry y="26" width="160" height="64" as="geometry" />
        </mxCell>
        <mxCell id="LA_kGTPau4nZWow_Dx0K-121" value="" style="line;strokeWidth=1;fillColor=none;align=left;verticalAlign=middle;spacingTop=-1;spacingLeft=3;spacingRight=3;rotatable=0;labelPosition=right;points=[];portConstraint=eastwest;strokeColor=inherit;" vertex="1" parent="LA_kGTPau4nZWow_Dx0K-119">
          <mxGeometry y="90" width="160" height="8" as="geometry" />
        </mxCell>
        <mxCell id="LA_kGTPau4nZWow_Dx0K-122" value="" style="text;strokeColor=none;fillColor=#FFFFFF;align=left;verticalAlign=top;spacingLeft=4;spacingRight=4;overflow=hidden;rotatable=0;points=[[0,0.5],[1,0.5]];portConstraint=eastwest;whiteSpace=wrap;html=1;" vertex="1" parent="LA_kGTPau4nZWow_Dx0K-119">
          <mxGeometry y="98" width="160" height="42" as="geometry" />
        </mxCell>
        <mxCell id="LA_kGTPau4nZWow_Dx0K-123" value="" style="endArrow=open;html=1;rounded=0;endFill=0;entryX=0.431;entryY=-0.014;entryDx=0;entryDy=0;entryPerimeter=0;" edge="1" parent="1" target="LA_kGTPau4nZWow_Dx0K-119">
          <mxGeometry width="50" height="50" relative="1" as="geometry">
            <mxPoint x="469.5" y="830" as="sourcePoint" />
            <mxPoint x="470.5" y="876" as="targetPoint" />
          </mxGeometry>
        </mxCell>
        <mxCell id="LA_kGTPau4nZWow_Dx0K-124" value="1" style="text;html=1;strokeColor=none;fillColor=none;align=center;verticalAlign=middle;whiteSpace=wrap;rounded=0;" vertex="1" parent="1">
          <mxGeometry x="448" y="830" width="20" height="20" as="geometry" />
        </mxCell>
        <mxCell id="LA_kGTPau4nZWow_Dx0K-125" value="*" style="text;html=1;strokeColor=none;fillColor=none;align=center;verticalAlign=middle;whiteSpace=wrap;rounded=0;" vertex="1" parent="1">
          <mxGeometry x="448" y="890" width="20" height="20" as="geometry" />
        </mxCell>
        <mxCell id="LA_kGTPau4nZWow_Dx0K-126" value="Inventory/Product" style="swimlane;fontStyle=1;align=center;verticalAlign=top;childLayout=stackLayout;horizontal=1;startSize=26;horizontalStack=0;resizeParent=1;resizeParentMax=0;resizeLast=0;collapsible=1;marginBottom=0;whiteSpace=wrap;html=1;fillColor=#FFFFFF;" vertex="1" parent="1">
          <mxGeometry x="690" y="900" width="160" height="210" as="geometry" />
        </mxCell>
        <mxCell id="LA_kGTPau4nZWow_Dx0K-127" value="+ id&lt;br&gt;+ price:double&lt;br&gt;+ name:string=null&lt;br&gt;+ categories:Category*]&lt;br&gt;+ description:text&lt;br&gt;+ cartItems:CartItem[*]&lt;br&gt;+ orderItems:OrderItem[*]&lt;br&gt;+items:InventoryItem[*]" style="text;strokeColor=none;fillColor=#FFFFFF;align=left;verticalAlign=top;spacingLeft=4;spacingRight=4;overflow=hidden;rotatable=0;points=[[0,0.5],[1,0.5]];portConstraint=eastwest;whiteSpace=wrap;html=1;" vertex="1" parent="LA_kGTPau4nZWow_Dx0K-126">
          <mxGeometry y="26" width="160" height="134" as="geometry" />
        </mxCell>
        <mxCell id="LA_kGTPau4nZWow_Dx0K-128" value="" style="line;strokeWidth=1;fillColor=none;align=left;verticalAlign=middle;spacingTop=-1;spacingLeft=3;spacingRight=3;rotatable=0;labelPosition=right;points=[];portConstraint=eastwest;strokeColor=inherit;" vertex="1" parent="LA_kGTPau4nZWow_Dx0K-126">
          <mxGeometry y="160" width="160" height="8" as="geometry" />
        </mxCell>
        <mxCell id="LA_kGTPau4nZWow_Dx0K-129" value="+ setCategory()&lt;br&gt;- addItem()" style="text;strokeColor=none;fillColor=#FFFFFF;align=left;verticalAlign=top;spacingLeft=4;spacingRight=4;overflow=hidden;rotatable=0;points=[[0,0.5],[1,0.5]];portConstraint=eastwest;whiteSpace=wrap;html=1;" vertex="1" parent="LA_kGTPau4nZWow_Dx0K-126">
          <mxGeometry y="168" width="160" height="42" as="geometry" />
        </mxCell>
        <mxCell id="LA_kGTPau4nZWow_Dx0K-131" value="" style="endArrow=open;html=1;rounded=0;entryX=0.006;entryY=0.552;entryDx=0;entryDy=0;entryPerimeter=0;endFill=0;" edge="1" parent="1" target="LA_kGTPau4nZWow_Dx0K-127">
          <mxGeometry width="50" height="50" relative="1" as="geometry">
            <mxPoint x="560" y="1000" as="sourcePoint" />
            <mxPoint x="670" y="1000" as="targetPoint" />
          </mxGeometry>
        </mxCell>
        <mxCell id="LA_kGTPau4nZWow_Dx0K-132" value="*" style="text;html=1;strokeColor=none;fillColor=none;align=center;verticalAlign=middle;whiteSpace=wrap;rounded=0;" vertex="1" parent="1">
          <mxGeometry x="562" y="980" width="20" height="20" as="geometry" />
        </mxCell>
        <mxCell id="LA_kGTPau4nZWow_Dx0K-133" value="1" style="text;html=1;strokeColor=none;fillColor=none;align=center;verticalAlign=middle;whiteSpace=wrap;rounded=0;" vertex="1" parent="1">
          <mxGeometry x="670" y="980" width="20" height="20" as="geometry" />
        </mxCell>
        <mxCell id="LA_kGTPau4nZWow_Dx0K-134" value="" style="endArrow=open;html=1;rounded=0;endFill=0;exitX=0.494;exitY=1.038;exitDx=0;exitDy=0;exitPerimeter=0;" edge="1" parent="1" source="LA_kGTPau4nZWow_Dx0K-53">
          <mxGeometry width="50" height="50" relative="1" as="geometry">
            <mxPoint x="760" y="850" as="sourcePoint" />
            <mxPoint x="760" y="900" as="targetPoint" />
            <Array as="points">
              <mxPoint x="760" y="870" />
            </Array>
          </mxGeometry>
        </mxCell>
        <mxCell id="LA_kGTPau4nZWow_Dx0K-136" value="1" style="text;html=1;strokeColor=none;fillColor=none;align=center;verticalAlign=middle;whiteSpace=wrap;rounded=0;" vertex="1" parent="1">
          <mxGeometry x="740" y="843" width="20" height="20" as="geometry" />
        </mxCell>
        <mxCell id="LA_kGTPau4nZWow_Dx0K-137" value="1" style="text;html=1;strokeColor=none;fillColor=none;align=center;verticalAlign=middle;whiteSpace=wrap;rounded=0;" vertex="1" parent="1">
          <mxGeometry x="740" y="880" width="20" height="20" as="geometry" />
        </mxCell>
        <mxCell id="LA_kGTPau4nZWow_Dx0K-138" value="InventoryItem" style="swimlane;fontStyle=1;align=center;verticalAlign=top;childLayout=stackLayout;horizontal=1;startSize=26;horizontalStack=0;resizeParent=1;resizeParentMax=0;resizeLast=0;collapsible=1;marginBottom=0;whiteSpace=wrap;html=1;fillColor=#FFFFFF;" vertex="1" parent="1">
          <mxGeometry x="690" y="1160" width="160" height="140" as="geometry">
            <mxRectangle x="690" y="1160" width="120" height="30" as="alternateBounds" />
          </mxGeometry>
        </mxCell>
        <mxCell id="LA_kGTPau4nZWow_Dx0K-139" value="+ id&lt;br&gt;+ name:string&lt;br&gt;+ description:text&lt;br&gt;+ options:InventoryOption[*]&lt;br&gt;" style="text;strokeColor=none;fillColor=#FFFFFF;align=left;verticalAlign=top;spacingLeft=4;spacingRight=4;overflow=hidden;rotatable=0;points=[[0,0.5],[1,0.5]];portConstraint=eastwest;whiteSpace=wrap;html=1;" vertex="1" parent="LA_kGTPau4nZWow_Dx0K-138">
          <mxGeometry y="26" width="160" height="64" as="geometry" />
        </mxCell>
        <mxCell id="LA_kGTPau4nZWow_Dx0K-140" value="" style="line;strokeWidth=1;fillColor=none;align=left;verticalAlign=middle;spacingTop=-1;spacingLeft=3;spacingRight=3;rotatable=0;labelPosition=right;points=[];portConstraint=eastwest;strokeColor=inherit;" vertex="1" parent="LA_kGTPau4nZWow_Dx0K-138">
          <mxGeometry y="90" width="160" height="8" as="geometry" />
        </mxCell>
        <mxCell id="LA_kGTPau4nZWow_Dx0K-141" value="+ addOption()&lt;br&gt;+ deleteOption()" style="text;strokeColor=none;fillColor=#FFFFFF;align=left;verticalAlign=top;spacingLeft=4;spacingRight=4;overflow=hidden;rotatable=0;points=[[0,0.5],[1,0.5]];portConstraint=eastwest;whiteSpace=wrap;html=1;" vertex="1" parent="LA_kGTPau4nZWow_Dx0K-138">
          <mxGeometry y="98" width="160" height="42" as="geometry" />
        </mxCell>
        <mxCell id="LA_kGTPau4nZWow_Dx0K-144" value="" style="endArrow=open;html=1;rounded=0;endFill=0;" edge="1" parent="1">
          <mxGeometry width="50" height="50" relative="1" as="geometry">
            <mxPoint x="771" y="1120" as="sourcePoint" />
            <mxPoint x="770.5" y="1160" as="targetPoint" />
            <Array as="points">
              <mxPoint x="771" y="1110" />
              <mxPoint x="770.5" y="1130" />
            </Array>
          </mxGeometry>
        </mxCell>
        <mxCell id="LA_kGTPau4nZWow_Dx0K-145" value="InventoryOption" style="swimlane;fontStyle=1;align=center;verticalAlign=top;childLayout=stackLayout;horizontal=1;startSize=26;horizontalStack=0;resizeParent=1;resizeParentMax=0;resizeLast=0;collapsible=1;marginBottom=0;whiteSpace=wrap;html=1;fillColor=#FFFFFF;" vertex="1" parent="1">
          <mxGeometry x="425" y="1160" width="160" height="130" as="geometry" />
        </mxCell>
        <mxCell id="LA_kGTPau4nZWow_Dx0K-146" value="+ id&lt;br&gt;+ name:string&lt;br&gt;+ value:string" style="text;strokeColor=none;fillColor=#FFFFFF;align=left;verticalAlign=top;spacingLeft=4;spacingRight=4;overflow=hidden;rotatable=0;points=[[0,0.5],[1,0.5]];portConstraint=eastwest;whiteSpace=wrap;html=1;" vertex="1" parent="LA_kGTPau4nZWow_Dx0K-145">
          <mxGeometry y="26" width="160" height="54" as="geometry" />
        </mxCell>
        <mxCell id="LA_kGTPau4nZWow_Dx0K-147" value="" style="line;strokeWidth=1;fillColor=none;align=left;verticalAlign=middle;spacingTop=-1;spacingLeft=3;spacingRight=3;rotatable=0;labelPosition=right;points=[];portConstraint=eastwest;strokeColor=inherit;" vertex="1" parent="LA_kGTPau4nZWow_Dx0K-145">
          <mxGeometry y="80" width="160" height="8" as="geometry" />
        </mxCell>
        <mxCell id="LA_kGTPau4nZWow_Dx0K-148" value="" style="text;strokeColor=none;fillColor=#FFFFFF;align=left;verticalAlign=top;spacingLeft=4;spacingRight=4;overflow=hidden;rotatable=0;points=[[0,0.5],[1,0.5]];portConstraint=eastwest;whiteSpace=wrap;html=1;" vertex="1" parent="LA_kGTPau4nZWow_Dx0K-145">
          <mxGeometry y="88" width="160" height="42" as="geometry" />
        </mxCell>
        <mxCell id="LA_kGTPau4nZWow_Dx0K-149" value="" style="endArrow=open;html=1;rounded=0;exitX=-0.019;exitY=0.672;exitDx=0;exitDy=0;exitPerimeter=0;endFill=0;" edge="1" parent="1" source="LA_kGTPau4nZWow_Dx0K-139">
          <mxGeometry width="50" height="50" relative="1" as="geometry">
            <mxPoint x="655" y="1229.5" as="sourcePoint" />
            <mxPoint x="585" y="1229.5" as="targetPoint" />
          </mxGeometry>
        </mxCell>
        <mxCell id="LA_kGTPau4nZWow_Dx0K-150" value="*" style="text;html=1;strokeColor=none;fillColor=none;align=center;verticalAlign=middle;whiteSpace=wrap;rounded=0;" vertex="1" parent="1">
          <mxGeometry x="585" y="1210" width="20" height="20" as="geometry" />
        </mxCell>
        <mxCell id="LA_kGTPau4nZWow_Dx0K-151" value="*" style="text;html=1;strokeColor=none;fillColor=none;align=center;verticalAlign=middle;whiteSpace=wrap;rounded=0;" vertex="1" parent="1">
          <mxGeometry x="670" y="1210" width="20" height="20" as="geometry" />
        </mxCell>
        <mxCell id="LA_kGTPau4nZWow_Dx0K-159" value="InventoryCategory" style="swimlane;fontStyle=0;childLayout=stackLayout;horizontal=1;startSize=26;fillColor=none;horizontalStack=0;resizeParent=1;resizeParentMax=0;resizeLast=0;collapsible=1;marginBottom=0;whiteSpace=wrap;html=1;dashed=1;dashPattern=8 8;" vertex="1" parent="1">
          <mxGeometry x="920" y="920" width="140" height="104" as="geometry" />
        </mxCell>
        <mxCell id="LA_kGTPau4nZWow_Dx0K-160" value="id" style="text;strokeColor=none;fillColor=none;align=left;verticalAlign=top;spacingLeft=4;spacingRight=4;overflow=hidden;rotatable=0;points=[[0,0.5],[1,0.5]];portConstraint=eastwest;whiteSpace=wrap;html=1;" vertex="1" parent="LA_kGTPau4nZWow_Dx0K-159">
          <mxGeometry y="26" width="140" height="26" as="geometry" />
        </mxCell>
        <mxCell id="LA_kGTPau4nZWow_Dx0K-161" value="inventory" style="text;strokeColor=none;fillColor=none;align=left;verticalAlign=top;spacingLeft=4;spacingRight=4;overflow=hidden;rotatable=0;points=[[0,0.5],[1,0.5]];portConstraint=eastwest;whiteSpace=wrap;html=1;" vertex="1" parent="LA_kGTPau4nZWow_Dx0K-159">
          <mxGeometry y="52" width="140" height="26" as="geometry" />
        </mxCell>
        <mxCell id="LA_kGTPau4nZWow_Dx0K-162" value="category" style="text;strokeColor=none;fillColor=none;align=left;verticalAlign=top;spacingLeft=4;spacingRight=4;overflow=hidden;rotatable=0;points=[[0,0.5],[1,0.5]];portConstraint=eastwest;whiteSpace=wrap;html=1;" vertex="1" parent="LA_kGTPau4nZWow_Dx0K-159">
          <mxGeometry y="78" width="140" height="26" as="geometry" />
        </mxCell>
        <mxCell id="LA_kGTPau4nZWow_Dx0K-163" value="" style="endArrow=open;html=1;rounded=0;entryX=-0.021;entryY=1;entryDx=0;entryDy=0;entryPerimeter=0;endFill=0;" edge="1" parent="1" target="LA_kGTPau4nZWow_Dx0K-160">
          <mxGeometry width="50" height="50" relative="1" as="geometry">
            <mxPoint x="850" y="971.5" as="sourcePoint" />
            <mxPoint x="910" y="971.5" as="targetPoint" />
          </mxGeometry>
        </mxCell>
        <mxCell id="LA_kGTPau4nZWow_Dx0K-164" value="Taxonomy" style="swimlane;fontStyle=1;align=center;verticalAlign=top;childLayout=stackLayout;horizontal=1;startSize=26;horizontalStack=0;resizeParent=1;resizeParentMax=0;resizeLast=0;collapsible=1;marginBottom=0;whiteSpace=wrap;html=1;fillColor=#FFFFFF;" vertex="1" parent="1">
          <mxGeometry x="920" y="1080" width="160" height="140" as="geometry">
            <mxRectangle x="690" y="1160" width="120" height="30" as="alternateBounds" />
          </mxGeometry>
        </mxCell>
        <mxCell id="LA_kGTPau4nZWow_Dx0K-165" value="+ id&lt;br&gt;+ name:string&lt;br&gt;+ description:text&lt;br&gt;+ inventories:Inventory[*]" style="text;strokeColor=none;fillColor=#FFFFFF;align=left;verticalAlign=top;spacingLeft=4;spacingRight=4;overflow=hidden;rotatable=0;points=[[0,0.5],[1,0.5]];portConstraint=eastwest;whiteSpace=wrap;html=1;" vertex="1" parent="LA_kGTPau4nZWow_Dx0K-164">
          <mxGeometry y="26" width="160" height="64" as="geometry" />
        </mxCell>
        <mxCell id="LA_kGTPau4nZWow_Dx0K-166" value="" style="line;strokeWidth=1;fillColor=none;align=left;verticalAlign=middle;spacingTop=-1;spacingLeft=3;spacingRight=3;rotatable=0;labelPosition=right;points=[];portConstraint=eastwest;strokeColor=inherit;" vertex="1" parent="LA_kGTPau4nZWow_Dx0K-164">
          <mxGeometry y="90" width="160" height="8" as="geometry" />
        </mxCell>
        <mxCell id="LA_kGTPau4nZWow_Dx0K-167" value="" style="text;strokeColor=none;fillColor=#FFFFFF;align=left;verticalAlign=top;spacingLeft=4;spacingRight=4;overflow=hidden;rotatable=0;points=[[0,0.5],[1,0.5]];portConstraint=eastwest;whiteSpace=wrap;html=1;" vertex="1" parent="LA_kGTPau4nZWow_Dx0K-164">
          <mxGeometry y="98" width="160" height="42" as="geometry" />
        </mxCell>
        <mxCell id="LA_kGTPau4nZWow_Dx0K-168" value="" style="endArrow=none;html=1;rounded=0;" edge="1" parent="1">
          <mxGeometry width="50" height="50" relative="1" as="geometry">
            <mxPoint x="890" y="1130" as="sourcePoint" />
            <mxPoint x="920" y="1130" as="targetPoint" />
          </mxGeometry>
        </mxCell>
        <mxCell id="LA_kGTPau4nZWow_Dx0K-170" value="" style="endArrow=none;html=1;rounded=0;" edge="1" parent="1">
          <mxGeometry width="50" height="50" relative="1" as="geometry">
            <mxPoint x="890" y="1130" as="sourcePoint" />
            <mxPoint x="890" y="1010" as="targetPoint" />
          </mxGeometry>
        </mxCell>
        <mxCell id="LA_kGTPau4nZWow_Dx0K-171" value="" style="endArrow=open;html=1;rounded=0;endFill=0;" edge="1" parent="1">
          <mxGeometry width="50" height="50" relative="1" as="geometry">
            <mxPoint x="890" y="1009" as="sourcePoint" />
            <mxPoint x="920" y="1008.5" as="targetPoint" />
          </mxGeometry>
        </mxCell>
        <mxCell id="LA_kGTPau4nZWow_Dx0K-172" value="Category" style="swimlane;fontStyle=1;align=center;verticalAlign=top;childLayout=stackLayout;horizontal=1;startSize=26;horizontalStack=0;resizeParent=1;resizeParentMax=0;resizeLast=0;collapsible=1;marginBottom=0;whiteSpace=wrap;html=1;fillColor=#FFFFFF;" vertex="1" parent="1">
          <mxGeometry x="1152" y="1080" width="160" height="136" as="geometry">
            <mxRectangle x="690" y="1160" width="120" height="30" as="alternateBounds" />
          </mxGeometry>
        </mxCell>
        <mxCell id="LA_kGTPau4nZWow_Dx0K-173" value="+ id&lt;br&gt;+ left:bigint&lt;br&gt;+ right:bigint" style="text;strokeColor=none;fillColor=#FFFFFF;align=left;verticalAlign=top;spacingLeft=4;spacingRight=4;overflow=hidden;rotatable=0;points=[[0,0.5],[1,0.5]];portConstraint=eastwest;whiteSpace=wrap;html=1;" vertex="1" parent="LA_kGTPau4nZWow_Dx0K-172">
          <mxGeometry y="26" width="160" height="60" as="geometry" />
        </mxCell>
        <mxCell id="LA_kGTPau4nZWow_Dx0K-174" value="" style="line;strokeWidth=1;fillColor=none;align=left;verticalAlign=middle;spacingTop=-1;spacingLeft=3;spacingRight=3;rotatable=0;labelPosition=right;points=[];portConstraint=eastwest;strokeColor=inherit;" vertex="1" parent="LA_kGTPau4nZWow_Dx0K-172">
          <mxGeometry y="86" width="160" height="8" as="geometry" />
        </mxCell>
        <mxCell id="LA_kGTPau4nZWow_Dx0K-175" value="" style="text;strokeColor=none;fillColor=#FFFFFF;align=left;verticalAlign=top;spacingLeft=4;spacingRight=4;overflow=hidden;rotatable=0;points=[[0,0.5],[1,0.5]];portConstraint=eastwest;whiteSpace=wrap;html=1;" vertex="1" parent="LA_kGTPau4nZWow_Dx0K-172">
          <mxGeometry y="94" width="160" height="42" as="geometry" />
        </mxCell>
        <mxCell id="LA_kGTPau4nZWow_Dx0K-176" value="" style="endArrow=open;html=1;rounded=0;endFill=0;exitX=0;exitY=0.5;exitDx=0;exitDy=0;" edge="1" parent="1" source="LA_kGTPau4nZWow_Dx0K-172">
          <mxGeometry width="50" height="50" relative="1" as="geometry">
            <mxPoint x="1140" y="1149.5" as="sourcePoint" />
            <mxPoint x="1080" y="1150" as="targetPoint" />
          </mxGeometry>
        </mxCell>
        <mxCell id="LA_kGTPau4nZWow_Dx0K-177" value="&lt;span style=&quot;font-size: 12px;&quot;&gt;Inherits&lt;/span&gt;" style="edgeLabel;html=1;align=center;verticalAlign=middle;resizable=0;points=[];" vertex="1" connectable="0" parent="LA_kGTPau4nZWow_Dx0K-176">
          <mxGeometry x="-0.0338" y="-2" relative="1" as="geometry">
            <mxPoint as="offset" />
          </mxGeometry>
        </mxCell>
        <mxCell id="LA_kGTPau4nZWow_Dx0K-180" value="Tag" style="swimlane;fontStyle=1;align=center;verticalAlign=top;childLayout=stackLayout;horizontal=1;startSize=26;horizontalStack=0;resizeParent=1;resizeParentMax=0;resizeLast=0;collapsible=1;marginBottom=0;whiteSpace=wrap;html=1;fillColor=#FFFFFF;" vertex="1" parent="1">
          <mxGeometry x="1160" y="1252" width="160" height="100" as="geometry">
            <mxRectangle x="690" y="1160" width="120" height="30" as="alternateBounds" />
          </mxGeometry>
        </mxCell>
        <mxCell id="LA_kGTPau4nZWow_Dx0K-181" value="+ id&lt;br&gt;# weight" style="text;strokeColor=none;fillColor=#FFFFFF;align=left;verticalAlign=top;spacingLeft=4;spacingRight=4;overflow=hidden;rotatable=0;points=[[0,0.5],[1,0.5]];portConstraint=eastwest;whiteSpace=wrap;html=1;" vertex="1" parent="LA_kGTPau4nZWow_Dx0K-180">
          <mxGeometry y="26" width="160" height="34" as="geometry" />
        </mxCell>
        <mxCell id="LA_kGTPau4nZWow_Dx0K-182" value="" style="line;strokeWidth=1;fillColor=none;align=left;verticalAlign=middle;spacingTop=-1;spacingLeft=3;spacingRight=3;rotatable=0;labelPosition=right;points=[];portConstraint=eastwest;strokeColor=inherit;" vertex="1" parent="LA_kGTPau4nZWow_Dx0K-180">
          <mxGeometry y="60" width="160" height="8" as="geometry" />
        </mxCell>
        <mxCell id="LA_kGTPau4nZWow_Dx0K-183" value="# calculateWeight()" style="text;strokeColor=none;fillColor=#FFFFFF;align=left;verticalAlign=top;spacingLeft=4;spacingRight=4;overflow=hidden;rotatable=0;points=[[0,0.5],[1,0.5]];portConstraint=eastwest;whiteSpace=wrap;html=1;" vertex="1" parent="LA_kGTPau4nZWow_Dx0K-180">
          <mxGeometry y="68" width="160" height="32" as="geometry" />
        </mxCell>
        <mxCell id="LA_kGTPau4nZWow_Dx0K-184" value="" style="endArrow=none;html=1;rounded=0;" edge="1" parent="1">
          <mxGeometry width="50" height="50" relative="1" as="geometry">
            <mxPoint x="1000" y="1310" as="sourcePoint" />
            <mxPoint x="1160" y="1310" as="targetPoint" />
          </mxGeometry>
        </mxCell>
        <mxCell id="LA_kGTPau4nZWow_Dx0K-185" value="" style="endArrow=open;html=1;rounded=0;entryX=0.5;entryY=1;entryDx=0;entryDy=0;endFill=0;" edge="1" parent="1" target="LA_kGTPau4nZWow_Dx0K-164">
          <mxGeometry width="50" height="50" relative="1" as="geometry">
            <mxPoint x="999.5" y="1311" as="sourcePoint" />
            <mxPoint x="999.5" y="1241" as="targetPoint" />
          </mxGeometry>
        </mxCell>
        <mxCell id="LA_kGTPau4nZWow_Dx0K-186" value="&lt;font style=&quot;font-size: 12px;&quot;&gt;Inherits&lt;/font&gt;" style="edgeLabel;html=1;align=center;verticalAlign=middle;resizable=0;points=[];" vertex="1" connectable="0" parent="LA_kGTPau4nZWow_Dx0K-185">
          <mxGeometry x="-0.1208" relative="1" as="geometry">
            <mxPoint as="offset" />
          </mxGeometry>
        </mxCell>
      </root>
    </mxGraphModel>
  </diagram>
</mxfile>
